<?xml version="1.0" standalone="no"?>
<!DOCTYPE svg PUBLIC "-//W3C//DTD SVG 20010904//EN"
 "http://www.w3.org/TR/2001/REC-SVG-20010904/DTD/svg10.dtd">
<svg version="1.0" xmlns="http://www.w3.org/2000/svg"
 width="512.000000pt" height="512.000000pt" viewBox="0 0 512.000000 512.000000"
 preserveAspectRatio="xMidYMid meet">
<metadata>
Created by potrace 1.11, written by Peter Selinger 2001-2013
</metadata>
<g transform="translate(0.000000,512.000000) scale(0.100000,-0.100000)"
fill="#000000" stroke="none">
<path d="M2379 5116 c-2 -2 -40 -7 -84 -10 -44 -4 -93 -9 -110 -11 -355 -60
-549 -123 -814 -261 -562 -295 -1038 -849 -1236 -1440 -20 -60 -38 -116 -40
-124 -2 -8 -15 -62 -29 -120 -45 -192 -60 -326 -60 -575 -1 -204 7 -352 19
-388 2 -7 6 -30 9 -52 12 -105 53 -266 103 -409 179 -508 488 -923 925 -1244
54 -40 100 -72 102 -72 3 0 31 -17 63 -38 196 -129 520 -258 798 -318 48 -10
208 -35 271 -41 90 -10 427 -10 529 -1 483 44 951 235 1330 543 85 69 295 270
340 326 11 14 40 49 65 79 187 226 330 482 428 765 28 80 69 231 76 279 4 21
8 41 10 45 2 3 7 31 11 61 4 30 8 57 10 60 11 17 20 218 19 410 -1 263 -14
379 -68 606 -30 124 -69 249 -97 311 -10 24 -19 45 -19 48 0 8 -39 93 -83 180
-146 289 -374 571 -643 795 -49 41 -91 77 -94 80 -17 19 -212 147 -302 199
-262 150 -593 263 -873 297 -27 3 -61 8 -75 10 -31 6 -476 14 -481 10z m366
-351 c71 -5 114 -10 180 -20 693 -108 1328 -586 1637 -1233 87 -182 166 -434
193 -619 22 -150 27 -456 11 -573 -5 -34 -13 -83 -22 -145 -10 -64 -57 -243
-86 -325 -174 -498 -495 -910 -913 -1170 -283 -176 -633 -296 -953 -327 -98
-10 -346 -10 -437 -1 -532 54 -978 261 -1340 623 -258 257 -428 519 -544 839
-47 128 -91 333 -107 491 -9 95 -12 337 -3 328 5 -7 17 -48 55 -193 2 -8 8
-33 13 -54 13 -53 34 -73 63 -59 13 6 68 47 122 93 54 45 110 89 123 97 38 25
47 50 25 70 -57 54 -94 83 -104 83 -6 0 -25 -9 -43 -20 l-33 -20 -10 27 c-26
69 -43 133 -37 143 8 13 45 13 45 0 0 -13 39 -49 73 -66 15 -8 49 -17 75 -19
141 -15 174 -26 237 -84 62 -56 130 -190 220 -428 15 -40 31 -73 37 -73 14 0
75 65 93 100 9 17 16 54 17 83 0 62 8 71 169 180 118 79 145 90 155 60 3 -10
26 -59 50 -110 47 -96 60 -108 113 -98 17 3 31 2 32 -2 0 -5 2 -17 4 -28 2
-11 6 -49 9 -85 8 -92 20 -134 60 -212 23 -42 31 -68 24 -68 -7 1 -44 16 -83
35 -38 18 -72 32 -74 29 -11 -11 70 -135 133 -203 71 -76 201 -149 298 -166
17 -3 34 -8 38 -10 3 -2 44 -7 91 -10 l84 -6 -55 26 c-30 14 -84 34 -121 45
-127 35 -139 47 -163 168 -19 94 -48 149 -107 212 -27 27 -51 60 -54 72 -9 36
-1 101 13 106 6 2 38 -21 69 -52 32 -31 65 -56 74 -56 19 0 92 56 115 88 20
28 14 47 -47 148 -47 76 -49 82 -38 115 24 71 68 91 201 90 48 0 94 5 114 14
79 33 154 155 160 259 2 50 -3 80 -28 147 -49 135 -48 142 7 194 26 25 51 45
57 45 32 0 101 -120 113 -195 7 -47 19 -56 57 -43 49 17 55 47 33 166 -15 78
38 143 130 162 42 9 59 17 65 33 23 53 91 341 86 361 -3 11 -26 35 -51 51 -25
17 -45 36 -45 44 0 8 16 33 35 57 45 54 91 69 162 53 26 -6 57 -13 68 -15 36
-8 83 6 134 41 59 41 92 51 120 35 29 -15 26 -40 -10 -75 -44 -43 -70 -99 -73
-160 -4 -62 9 -144 25 -160 13 -13 50 31 86 103 24 50 25 57 14 105 -6 28 -8
54 -4 58 5 4 39 9 77 12 47 4 86 14 125 34 50 25 56 32 59 62 4 38 -22 127
-43 147 -26 26 -269 95 -419 118 -21 4 -41 8 -45 10 -3 2 -35 7 -71 11 -36 4
-68 9 -71 10 -7 5 -122 21 -219 30 -30 3 -66 8 -80 10 -14 3 -65 7 -115 11
-49 3 -106 7 -125 9 -241 25 -976 25 -1260 0 -30 -3 -80 -7 -110 -10 l-55 -4
35 30 c71 61 218 153 345 215 254 123 532 195 815 210 63 4 116 7 117 8 3 3
120 -2 208 -9z m-2085 -1360 c0 -4 -7 -19 -15 -36 -21 -41 -25 -104 -11 -186
6 -38 12 -83 11 -99 0 -28 -2 -29 -50 -29 l-50 0 -1 102 c-1 56 -5 106 -8 111
-13 21 18 75 63 108 44 32 61 40 61 29z"/>
<path d="M3168 3611 c-14 -5 -16 -17 -12 -76 11 -158 0 -219 -66 -360 -43 -90
-65 -117 -132 -164 -26 -17 -52 -40 -58 -51 -14 -26 -13 -86 3 -97 16 -14 256
136 274 171 7 14 16 60 19 103 6 82 19 117 53 145 27 23 27 29 -9 67 -31 32
-31 33 -25 114 5 67 2 89 -12 118 -13 27 -22 35 -35 30z"/>
<path d="M2359 1977 c-151 -94 -147 -90 -144 -137 5 -65 44 -96 135 -105 29
-3 56 -8 61 -11 22 -13 49 21 79 103 18 49 39 104 46 123 17 47 17 65 -2 84
-26 27 -54 17 -175 -57z"/>
<path d="M2938 1868 c-45 -16 -44 -38 4 -84 24 -22 58 -57 76 -77 19 -21 45
-39 58 -42 13 -3 35 -7 48 -10 13 -3 27 -12 30 -21 9 -24 -35 -164 -55 -174
-18 -10 -87 5 -106 24 -9 8 -10 21 -3 45 5 19 8 37 5 40 -2 4 -37 6 -77 6 -85
-2 -113 -14 -182 -80 -90 -85 -183 -138 -321 -185 -92 -31 -99 -42 -79 -128 7
-30 15 -75 19 -100 10 -77 24 -110 48 -114 12 -2 54 2 92 9 39 7 81 15 95 18
14 2 49 9 79 15 120 23 218 6 305 -51 43 -29 52 -31 109 -27 68 6 130 32 162
70 18 20 43 69 100 202 32 72 26 95 -41 162 -54 54 -63 69 -92 156 -38 113
-39 134 -11 164 l21 22 41 -24 c58 -33 69 -31 63 8 -7 48 -35 78 -96 102 -30
13 -80 35 -110 50 -59 29 -137 40 -182 24z"/>
<path d="M3721 1093 c-5 -10 -7 -35 -5 -56 6 -53 -24 -103 -95 -155 -74 -54
-96 -78 -79 -84 28 -11 97 1 115 19 31 32 130 167 148 201 21 43 15 58 -31 77
-45 18 -41 19 -53 -2z"/>
</g>
</svg>
