<?xml version="1.0" encoding="UTF-8" standalone="no"?>
<!-- Created with Inkscape (http://www.inkscape.org/) -->

<svg
   xmlns:dc="http://purl.org/dc/elements/1.1/"
   xmlns:cc="http://creativecommons.org/ns#"
   xmlns:rdf="http://www.w3.org/1999/02/22-rdf-syntax-ns#"
   xmlns:svg="http://www.w3.org/2000/svg"
   xmlns="http://www.w3.org/2000/svg"
   xmlns:sodipodi="http://sodipodi.sourceforge.net/DTD/sodipodi-0.dtd"
   xmlns:inkscape="http://www.inkscape.org/namespaces/inkscape"
   version="1.1"
   id="svg2"
   xml:space="preserve"
   width="1889.7623"
   height="398.71893"
   viewBox="0 0 1889.7623 398.71894"
   sodipodi:docname="logo_white.svg"
   inkscape:version="0.92.3 (2405546, 2018-03-11)"><metadata
     id="metadata8"><rdf:RDF><cc:Work
         rdf:about=""><dc:format>image/svg+xml</dc:format><dc:type
           rdf:resource="http://purl.org/dc/dcmitype/StillImage" /><dc:title></dc:title></cc:Work></rdf:RDF></metadata><defs
     id="defs6"><clipPath
       clipPathUnits="userSpaceOnUse"
       id="clipPath18"><path
         d="M 0,2383.94 H 1683.78 V 0 H 0 Z"
         id="path16"
         inkscape:connector-curvature="0" /></clipPath><clipPath
       clipPathUnits="userSpaceOnUse"
       id="clipPath114"><path
         d="M 0,2383.94 H 1683.78 V 0 H 0 Z"
         id="path112"
         inkscape:connector-curvature="0" /></clipPath></defs><sodipodi:namedview
     pagecolor="#ffffff"
     bordercolor="#666666"
     borderopacity="1"
     objecttolerance="10"
     gridtolerance="10"
     guidetolerance="10"
     inkscape:pageopacity="0"
     inkscape:pageshadow="2"
     inkscape:window-width="1920"
     inkscape:window-height="1025"
     id="namedview4"
     showgrid="false"
     inkscape:zoom="0.42000352"
     inkscape:cx="618.68119"
     inkscape:cy="-4.5449472"
     inkscape:window-x="0"
     inkscape:window-y="27"
     inkscape:window-maximized="1"
     inkscape:current-layer="g110" /><g
     id="g10"
     inkscape:groupmode="layer"
     inkscape:label="飛洋(logo)"
     transform="matrix(1.3333333,0,0,-1.3333333,-159.65542,2261.9815)"><g
       id="g108"><g
         id="g110"
         clip-path="url(#clipPath114)"
         transform="translate(22.728247,159.0977)"><g
           id="g116"
           transform="translate(97.0815,1390.6484)"
           style="fill:#ffffff;fill-opacity:1"><path
             d="m 0,0 c 0,31.486 -0.015,62.973 0.01,94.462 0.007,7.115 -0.537,5.899 6.1,5.904 45.54,0.036 91.079,-0.022 136.619,0.107 3.616,0.01 4.578,-0.984 4.468,-4.534 -0.263,-8.449 -0.234,-16.916 -0.01,-25.366 0.085,-3.176 -0.999,-3.857 -3.959,-3.845 -24.981,0.107 -49.964,-0.017 -74.942,0.159 -3.765,0.027 -4.8,-0.94 -4.726,-4.727 0.246,-12.876 0.187,-25.762 0.024,-38.639 -0.039,-2.984 0.898,-3.714 3.755,-3.697 20.168,0.11 40.337,0 60.503,0.122 3.003,0.017 4.067,-0.713 3.991,-3.872 -0.207,-8.714 -0.192,-17.439 0.003,-26.152 0.065,-3.008 -0.952,-3.677 -3.794,-3.66 -20.034,0.112 -40.076,-0.02 -60.11,0.136 -3.42,0.028 -4.38,-0.861 -4.361,-4.335 0.155,-26.282 0.025,-52.564 0.166,-78.848 0.02,-3.401 -0.822,-4.392 -4.313,-4.356 -18.213,0.189 -36.431,0.194 -54.646,0.01 -3.694,-0.036 -4.863,0.911 -4.846,4.717 0.141,32.137 0.08,64.275 0.08,96.414 z"
             style="fill:#ffffff;fill-opacity:1;fill-rule:nonzero;stroke:none"
             id="path118"
             inkscape:connector-curvature="0" /></g><g
           id="g120"
           transform="translate(872.4629,1339.5791)"
           style="fill:#ffffff;fill-opacity:1"><path
             d="m 0,0 c -26.691,-65.503 -88.029,-84.712 -130.282,-80.864 -38.755,3.53 -70.237,20.9 -93.681,52.08 -18.329,24.375 -26.204,52.138 -24.644,82.682 1.118,-4.093 2.29,-8.17 3.342,-12.282 2.402,-9.383 2.344,-9.348 9.427,-3.338 3.356,2.85 6.87,5.516 10.312,8.265 1.589,1.271 2.273,2.485 0.054,3.879 -1.084,0.682 -2.134,1.526 -2.952,2.505 -1.592,1.909 -3.23,2.449 -5.181,0.637 -1.452,-1.347 -2.29,-1.455 -2.769,0.832 -0.446,2.132 -1.289,4.178 -1.933,6.268 -0.298,0.972 -0.114,1.821 0.857,2.321 0.652,0.337 1.457,0.223 1.739,-0.368 2.36,-4.969 7.492,-5.386 11.584,-5.589 11.621,-0.573 15.114,-9.235 19.043,-17.565 2.204,-4.683 3.874,-9.629 5.61,-14.515 0.923,-2.594 1.455,-2.177 3.249,-0.478 3.243,3.076 5.271,6.345 4.527,10.947 -0.203,1.26 0.31,2.256 1.386,3.003 4.681,3.252 9.339,6.536 14.009,9.798 1.844,1.286 3.074,1.393 3.877,-1.278 0.703,-2.331 2.176,-4.419 3.142,-6.686 1.231,-2.884 2.322,-5.652 6.441,-4.492 2.099,0.592 1.694,-1.074 1.775,-2.364 0.381,-6.064 0.793,-12.136 4.294,-17.446 0.632,-0.962 1.155,-1.997 1.978,-3.428 -4.097,0.427 -6.797,3.538 -10.618,4.024 8.223,-16.068 19.08,-22.778 38.252,-23.281 -4.287,2.331 -8.052,3.862 -11.948,4.648 -4.363,0.876 -7.107,2.603 -7.615,7.429 -0.635,6.054 -2.754,11.435 -7.857,15.425 -3.129,2.446 -1.916,6.165 -1.772,9.841 3.11,-1.233 4.687,-3.845 6.782,-5.794 1.441,-1.339 2.42,-1.696 4.251,-0.241 6.867,5.464 6.904,5.339 2.121,12.673 -1.653,2.534 -4.201,4.526 -1.899,8.523 2.48,4.302 6.326,3.106 9.719,3.902 0.828,0.192 1.785,-0.252 2.688,-0.278 5.447,-0.165 8.728,1.847 11.895,7.016 4.292,7.007 3.745,12.824 0.678,19.59 -2.854,6.294 -2.561,6.35 2.481,10.83 1.501,1.335 2.48,1.494 3.794,-0.181 2.256,-2.871 4.206,-5.766 4.558,-9.607 0.105,-1.159 -0.054,-3.857 2.214,-3.264 2.061,0.539 4.715,1.455 4.16,4.7 -0.171,1.018 -0.385,2.036 -0.661,3.03 -1.848,6.679 1.142,11.222 8.01,11.831 1.863,0.166 2.905,0.879 3.359,2.583 1.641,6.206 3.269,12.419 4.895,18.632 0.664,2.542 -1.323,3.318 -2.902,4.426 -4.427,3.101 -3.872,2.671 -0.496,6.702 3.599,4.292 7.524,3.257 11.411,2.034 3.687,-1.16 6.484,-0.362 9.28,1.843 1.113,0.879 2.263,1.819 3.552,2.341 1.624,0.655 3.755,0.525 4.771,-0.651 0.984,-1.143 -0.572,-2.564 -1.548,-3.475 -5.476,-5.092 -5.113,-11.362 -3.718,-17.849 0.124,-0.578 0.468,-1.318 0.935,-1.574 0.654,-0.357 1.247,0.315 1.547,0.849 2.269,4.036 6.116,7.598 3.809,13.023 -0.879,2.068 0.129,2.861 2.236,2.702 4.146,-0.31 7.93,0.777 11.521,2.864 1.416,0.825 1.966,1.589 1.77,3.333 -0.798,7.07 -2.131,8.962 -8.852,10.769 -16.299,4.377 -32.879,7.006 -49.695,8.591 -8.755,0.825 -17.529,1.467 -26.279,1.807 -8.887,0.344 -17.779,0.893 -26.758,0.405 -7.046,-0.381 -14.185,-0.903 -21.309,-0.818 -6.445,0.076 -12.903,-0.823 -20.117,-1.345 33.674,28.825 95.396,38.938 144.868,8.613 C 4.1,123.972 23.04,56.543 0,0 m -231.154,98.228 c 0.2,-0.625 0.423,-0.977 0.335,-1.094 -4.38,-5.825 -1.097,-12.059 -0.857,-18.089 0.117,-3.015 -1.885,-1.975 -3.044,-1.948 -1.146,0.029 -3.692,-1.197 -3.074,1.797 0.8,3.906 -0.286,7.664 -0.411,11.462 -0.131,4.039 4.085,5.596 7.051,7.872 m 216.723,55.973 c -33.412,32.82 -74.184,47.178 -120.802,42.859 -34.368,-3.184 -64.502,-17.239 -88.994,-41.553 -33.53,-33.283 -48.355,-73.969 -44.661,-121.213 5.652,-69.48 64.924,-135.146 148.21,-135.522 41.15,-0.188 76.746,14.324 105.752,43.085 33.535,33.26 47.922,74.359 43.674,121.356 -3.198,35.395 -17.883,66.14 -43.179,90.988"
             style="fill:#ffffff;fill-opacity:1;fill-rule:nonzero;stroke:none"
             id="path122"
             inkscape:connector-curvature="0" /></g><g
           id="g124"
           transform="translate(1312.3623,1491.0923)"
           style="fill:#ffffff;fill-opacity:1"><path
             d="m 0,0 c -12.754,-0.129 -25.513,-0.198 -38.261,0.037 -3.672,0.066 -4.775,-0.73 -4.761,-4.615 0.162,-35.661 0.093,-71.323 0.054,-106.984 0,-1.323 0.557,-2.811 -0.816,-4.229 -1.43,2.774 -2.826,5.386 -4.151,8.033 -17.484,34.868 -34.964,69.74 -52.435,104.616 -0.889,1.772 -1.621,3.171 -4.209,3.157 -23.037,-0.135 -46.074,-0.108 -69.111,-0.032 -2.52,0.01 -3.34,-0.73 -3.34,-3.316 0.068,-64.816 0.072,-129.633 0.009,-194.448 -0.005,-2.856 0.717,-3.813 3.702,-3.776 13.011,0.153 26.035,0.192 39.043,-0.032 3.574,-0.061 4.281,1.123 4.271,4.441 -0.121,32.93 -0.078,65.856 -0.078,98.786 -0.004,5.198 0,10.396 0,15.594 0.27,0.104 0.537,0.21 0.807,0.312 0.722,-1.326 1.474,-2.641 2.172,-3.979 19.384,-36.961 38.765,-73.919 58.13,-110.887 1.211,-2.316 2.159,-4.299 5.61,-4.267 21.217,0.195 42.431,0.151 63.642,0.037 2.906,-0.015 3.819,0.805 3.814,3.727 C 4.028,-133.139 4.023,-68.455 4.106,-3.767 4.111,-0.515 2.866,0.029 0,0"
             style="fill:#ffffff;fill-opacity:1;fill-rule:nonzero;stroke:none"
             id="path126"
             inkscape:connector-curvature="0" /></g><g
           id="g132"
           transform="translate(1107.8223,1491.1045)"
           style="fill:#ffffff;fill-opacity:1"><path
             d="m 0,0 c -12.75,-0.188 -25.508,-0.232 -38.258,0.02 -3.822,0.075 -4.701,-1.026 -4.687,-4.764 0.136,-42.035 0.107,-84.069 0.074,-126.106 -0.01,-7.041 -0.762,-13.994 -2.76,-20.805 -2.816,-9.612 -8.392,-16.316 -18.623,-18.323 -9.443,-1.85 -18.91,-1.918 -28.217,0.567 -11.142,2.975 -17.695,10.373 -19.683,21.777 -0.987,5.659 -1.225,11.372 -1.225,17.1 -0.006,42.036 -0.035,84.072 0.053,126.105 0.01,3.245 -0.629,4.49 -4.248,4.451 -18.35,-0.195 -36.703,-0.193 -55.049,0 -3.637,0.039 -4.482,-1.033 -4.473,-4.543 0.123,-43.206 0.117,-86.414 0.065,-129.62 -0.016,-11.499 2.533,-22.353 6.869,-32.965 8.336,-20.394 22.994,-32.684 44.713,-37.093 15.414,-3.127 30.898,-4.035 46.537,-3.814 13.482,0.194 26.715,1.939 39.453,6.485 17.809,6.355 31.006,17.749 37.994,35.647 4.121,10.567 5.469,21.651 5.508,32.905 0.068,19.651 0.019,39.302 0.019,58.955 0,23.296 -0.058,46.589 0.069,69.885 C 4.15,-0.906 3.275,0.049 0,0"
             style="fill:#ffffff;fill-opacity:1;fill-rule:nonzero;stroke:none"
             id="path134"
             inkscape:connector-curvature="0" /></g><g
           id="g136"
           transform="translate(1514.3057,1373.8662)"
           style="fill:#ffffff;fill-opacity:1"><path
             d="m 0,0 c 0.015,2.99 -0.649,4.035 -3.848,3.991 -13.139,-0.18 -26.289,-0.156 -39.433,-0.01 -2.876,0.033 -3.794,-0.724 -3.76,-3.683 0.146,-14.446 -0.034,-28.895 0.161,-43.34 0.039,-3.099 -1.025,-4.312 -3.852,-5.049 -10.24,-2.671 -20.577,-4.402 -31.202,-4.267 -13.193,0.168 -22.949,5.771 -28.764,17.795 -1.934,3.994 -3.452,8.144 -4.214,12.527 -2.832,16.377 -2.51,32.915 -2.344,49.438 0.068,7.447 1.275,14.756 3.277,21.921 4.638,16.605 14.702,27.534 32.241,30.481 24.248,4.075 47.651,1.03 70.288,-8.401 2.578,-1.074 5.161,-2.135 8.305,-3.437 -2.783,14.419 -5.444,28.166 -8.085,41.916 -0.367,1.91 -1.851,2.256 -3.399,2.688 -10.42,2.918 -21.055,4.683 -31.797,5.789 -19.951,2.056 -39.946,3.608 -59.907,0.3 -33.408,-5.537 -56.069,-24.009 -65.479,-56.857 -9.609,-33.54 -7.851,-67.202 2.173,-100.381 8.584,-28.403 28.228,-44.619 57.29,-49.805 21.783,-3.887 43.545,-3.115 65.235,0.422 14.78,2.412 29.228,6.231 42.944,12.466 2.656,1.206 4.229,2.498 4.199,5.996 C -0.181,-46.336 -0.122,-23.167 0,0"
             style="fill:#ffffff;fill-opacity:1;fill-rule:nonzero;stroke:none"
             id="path138"
             inkscape:connector-curvature="0" /></g><g
           id="g140"
           transform="translate(552.4155,1491.063)"
           style="fill:#ffffff;fill-opacity:1"><path
             d="m 0,0 c -1.973,0.01 -2.283,-1.387 -2.957,-2.546 -9.802,-16.871 -19.582,-33.75 -29.365,-50.632 -2.261,-3.902 -2.281,-3.921 -4.605,0.129 -9.585,16.689 -19.201,33.364 -28.667,50.122 -1.279,2.268 -2.717,2.961 -5.224,2.949 -20.176,-0.095 -40.351,-0.117 -60.527,0.01 -3.689,0.024 -3.738,-0.738 -2.029,-3.716 18.21,-31.677 36.265,-63.444 54.455,-95.134 1.816,-3.164 2.606,-6.311 2.593,-9.956 -0.103,-29.417 0,-58.833 -0.144,-88.252 -0.017,-3.621 1.05,-4.546 4.592,-4.512 17.962,0.173 35.926,0.076 53.89,0.079 5.148,0 5.171,0.004 5.173,5.346 0.009,29.678 0.029,59.356 -0.022,89.033 -0.005,2.427 0.471,4.514 1.784,6.597 16.592,26.284 33.128,52.603 49.663,78.921 4.341,6.909 8.641,13.84 13.433,21.52 C 34.084,-0.042 17.041,-0.073 0,0"
             style="fill:#ffffff;fill-opacity:1;fill-rule:nonzero;stroke:none"
             id="path142"
             inkscape:connector-curvature="0" /></g><g
           id="g144"
           transform="translate(404.686,1323.209)"
           style="fill:#ffffff;fill-opacity:1"><path
             d="m 0,0 c -24.729,-0.124 -49.46,-0.065 -74.189,-0.061 -5.457,0 -5.464,0.005 -5.464,5.447 -0.003,52.713 -0.025,105.425 0.061,158.137 0.005,3.188 -0.464,4.453 -4.158,4.407 -18.479,-0.23 -36.963,-0.181 -55.444,-0.032 -3.208,0.024 -4.143,-0.786 -4.131,-4.087 0.13,-32.148 0.078,-64.294 0.081,-96.445 0.002,-32.275 0.024,-64.553 -0.037,-96.834 -0.002,-2.69 0.213,-4.22 3.662,-4.214 46.723,0.111 93.45,0.098 140.176,-0.005 3.098,-0.006 3.693,1.172 3.659,3.868 -0.11,8.589 -0.19,17.185 0.025,25.769 C 4.326,-0.7 3.152,0.015 0,0"
             style="fill:#ffffff;fill-opacity:1;fill-rule:nonzero;stroke:none"
             id="path146"
             inkscape:connector-curvature="0" /></g><g
           id="g168"
           transform="translate(1376.4297,1548.1626)" /><g
           id="g180"
           transform="translate(797.1245,1316.9639)"
           style="fill:#ffffff;fill-opacity:1"><path
             d="m 0,0 c -5.823,3.948 -6.562,10.481 -8.411,16.431 -0.517,1.668 0.486,3.049 1.663,4.087 1.255,1.103 2.073,-0.445 3.083,-0.803 1.277,-0.454 2.249,-1.724 4.002,-1.487 -0.259,3.42 -0.845,6.257 -4.751,7.502 -3.189,1.016 -6.143,2.754 -9.209,4.153 -0.828,0.374 -1.672,0.918 -2.534,0.967 -2.927,0.166 -6.712,0.779 -8.257,-1.602 -1.216,-1.875 2.295,-3.542 3.84,-5.104 2.073,-2.095 3.736,-5.677 6.634,-5.702 5.388,-0.046 4.653,-2.475 3.361,-5.827 -0.412,-1.074 -0.705,-2.207 -0.922,-3.338 -0.533,-2.78 -1.897,-3.537 -4.703,-2.656 -4.328,1.365 -4.382,1.199 -2.739,6.668 -1.262,0 -2.182,-0.117 -3.064,0.02 -4.382,0.688 -8.222,-0.262 -11.333,-3.565 -6.133,-6.512 -13.73,-10.447 -22.317,-12.571 -2.529,-0.625 -2.947,-2.224 -2.544,-4.39 0.628,-3.398 1.504,-6.764 1.885,-10.187 0.518,-4.622 1.123,-5.254 6.011,-4.532 2.024,0.3 4.006,0.874 6.028,1.187 5.954,0.928 11.577,3.062 18.081,0.957 2.654,-0.854 4.345,-1.531 6.421,-3.403 3.379,-3.055 13.896,-0.196 16.042,3.986 2.009,3.911 3.584,8.045 5.413,12.054 C 2.983,-4.299 2.703,-1.831 0,0"
             style="fill:#ffffff;fill-opacity:1;fill-rule:nonzero;stroke:none"
             id="path182"
             inkscape:connector-curvature="0" /></g><g
           id="g184"
           transform="translate(774.3804,1405.6973)"
           style="fill:#ffffff;fill-opacity:1"><path
             d="m 0,0 c 4.016,2.6 8.047,5.186 12.17,7.607 2.059,1.208 2.425,2.906 2.862,5.083 0.818,4.068 -0.933,8.943 3.738,11.983 1.699,1.108 0.166,2.558 -0.889,3.496 -1.548,1.382 -2.278,2.722 -1.724,5.029 0.337,1.399 0.525,3.02 0.647,5.039 -0.354,1.186 -0.832,2.798 -1.313,4.407 -0.262,0.876 -0.857,1.272 -1.756,1.12 C 12.947,43.63 12.739,42.995 12.71,42.329 12.666,41.291 12.532,40.219 12.72,39.216 13.794,33.501 13.323,28.059 11.04,22.598 8.735,17.072 6.931,11.465 1.084,8.384 -1.492,7.026 -3.188,4.819 -2.62,1.418 -2.292,-0.547 -1.921,-1.245 0,0"
             style="fill:#ffffff;fill-opacity:1;fill-rule:nonzero;stroke:none"
             id="path186"
             inkscape:connector-curvature="0" /></g><g
           id="g188"
           transform="translate(747.0342,1341.3271)"
           style="fill:#ffffff;fill-opacity:1"><path
             d="m 0,0 c 1.384,4.033 2.908,8.024 4.463,11.997 0.627,1.602 0.835,2.981 -0.728,4.157 -1.347,1.019 -2.631,0.814 -3.969,-0.011 -4.407,-2.72 -8.807,-5.453 -13.255,-8.106 -1.028,-0.615 -1.621,-1.258 -1.274,-2.444 -0.112,-4.204 1.308,-5.698 5.273,-6.851 1.934,-0.561 3.894,-0.112 5.73,-0.803 C -1.694,-2.837 -0.676,-1.973 0,0"
             style="fill:#ffffff;fill-opacity:1;fill-rule:nonzero;stroke:none"
             id="path190"
             inkscape:connector-curvature="0" /></g><g
           id="g192"
           transform="translate(825.6523,1301.0928)"
           style="fill:#ffffff;fill-opacity:1"><path
             d="m 0,0 c -1.392,0.889 -3.044,1.812 -4.602,1.843 -1.399,0.027 -1.248,-1.955 -1.067,-2.91 0.972,-5.178 -2.229,-7.818 -5.842,-10.359 -1.653,-1.165 -3.469,-2.187 -5.222,-4.763 3.286,0.19 5.957,-1.077 7.946,1.487 3.011,3.869 6.394,7.48 8.516,11.979 C 0.139,-1.854 1.233,-0.781 0,0"
             style="fill:#ffffff;fill-opacity:1;fill-rule:nonzero;stroke:none"
             id="path194"
             inkscape:connector-curvature="0" /></g></g></g></g></svg>